<svg height="512" viewBox="0 0 64 64" width="512" xmlns="http://www.w3.org/2000/svg"><g id="moon"><circle cx="5" cy="20" r="1"/><path d="m31.949 23.684 1.051 3.154 1.051-3.154a1 1 0 0 1 .5-.579l2.213-1.105-2.211-1.1a1 1 0 0 1 -.5-.579l-1.053-3.159-1.051 3.154a1 1 0 0 1 -.5.579l-2.213 1.105 2.211 1.105a1 1 0 0 1 .502.579z"/><path d="m19.949 36.684 1.051 3.154 1.051-3.154a1 1 0 0 1 .5-.579l2.213-1.105-2.211-1.1a1 1 0 0 1 -.5-.579l-1.053-3.159-1.051 3.154a1 1 0 0 1 -.5.579l-2.213 1.105 2.211 1.1a1 1 0 0 1 .502.584z"/><circle cx="34" cy="39" r="1"/><circle cx="36" cy="9" r="1"/><path d="m48.541 9.242a27.44 27.44 0 0 1 3.459 13.758 27.03 27.03 0 0 1 -27 27 25.726 25.726 0 0 1 -18.72-7.662 27.249 27.249 0 0 0 25.72 17.662 28.032 28.032 0 0 0 28-28 27.644 27.644 0 0 0 -11.459-22.758z"/><path d="m60 4v-2h-2v2h-2v2h2v2h2v-2h2v-2z"/><path d="m6 56h-2v2h-2v2h2v2h2v-2h2v-2h-2z"/><path d="m21 16h2v-2h2v-2h-2v-2h-2v2h-2v2h2z"/><path d="m41 33h2v-2h2v-2h-2v-2h-2v2h-2v2h2z"/><path d="m13 28h2v-2h2v-2h-2v-2h-2v2h-2v2h2z"/><path d="m58 54h-2v2h-2v2h2v2h2v-2h2v-2h-2z"/></g></svg>